# xmcd
#
# Track frame offsets: 
#        150
#        67580
#        90659
#        127002
#        147945
#        174156
#        191178
#        202310
#
# Disc length: 2921 seconds
#
# Revision: 0
# Processed by: cddbd v1.5.2PL0 Copyright (c) Steve Scherf et al.
# Submitted via: ExactAudioCopy v0.95b4
#
DISCID=720b6708
DTITLE=Shar Jones and the Dap Kings - Want Some More Funk CD1
DYEAR=2006
DGENRE=Funk
TTITLE0=Intro - Got To Be The Way It Is - "Ancestors" Rap
TTITLE1=How Long Do I Have To Wait For You
TTITLE2=How Do I Let A Good Man Down
TTITLE3=Your Thing Is A Drag
TTITLE4=Genuine
TTITLE5=Be Easy
TTITLE6=Once I Had A Good Man
TTITLE7=What Have You Done For Me Lately?
EXTD=
EXTT0=
EXTT1=
EXTT2=
EXTT3=
EXTT4=
EXTT5=
EXTT6=
EXTT7=
PLAYORDER=
